<svg xmlns="http://www.w3.org/2000/svg" viewBox="0 0 1200 630" width="1200" height="630" role="img" aria-label="crucible — from trade log to verdict. The quantitative gauntlet for evaluating trading strategy expectancy.">
  <defs>
    <linearGradient id="sbg" x1="0" y1="0" x2="0" y2="1"><stop offset="0" stop-color="#21242c"/><stop offset="1" stop-color="#141619"/></linearGradient>
    <radialGradient id="sglow" cx="50%" cy="30%" r="40%"><stop offset="0" stop-color="#f2b62c" stop-opacity="0.14"/><stop offset="1" stop-color="#f2b62c" stop-opacity="0"/></radialGradient>
  </defs>
  <rect width="1200" height="630" fill="url(#sbg)"/>
  <rect width="1200" height="630" fill="url(#sglow)"/>

  <!-- backdrop: faint grid + gold dashed equity curve + green wave -->
  <g stroke="#ffffff" stroke-width="1" opacity="0.028">
    <path d="M240 0V630M480 0V630M720 0V630M960 0V630"/>
    <path d="M0 158H1200M0 316H1200M0 474H1200"/>
  </g>
  <path d="M-20 596 C 300 520, 560 628, 900 520 S 1240 440 1240 440" fill="none" stroke="#f2b62c" stroke-width="2.5" stroke-dasharray="7 9" opacity="0.26"/>
  <path d="M-20 470 C 320 392, 640 540, 940 430 S 1240 356 1240 356" fill="none" stroke="#35b45b" stroke-width="2.5" opacity="0.14"/>

  <!-- cone-crucible mark, centered top -->
  <g transform="translate(456,64) scale(1.2)">
    <path d="M60,64 L20,44" fill="none" stroke="#8b929c" stroke-width="10" stroke-linecap="round"/>
    <circle cx="18" cy="43" r="7" fill="#8b929c"/>
    <path d="M96,56 L54,64 C44,76 50,92 70,94 L150,106" fill="none" stroke="#b4bac4" stroke-width="10" stroke-linecap="round" stroke-linejoin="round"/>
    <ellipse cx="126" cy="85" rx="30" ry="9" fill="#f2b62c" transform="rotate(42 126 85)"/>
    <ellipse cx="123" cy="81" rx="37" ry="12" fill="none" stroke="#b4bac4" stroke-width="10" transform="rotate(42 123 81)"/>
    <path d="M144,100 L166,107 L149,116 Z" fill="#b4bac4"/>
    <path d="M162,108 C162,132 158,152 155,170" fill="none" stroke="#f2b62c" stroke-width="14" stroke-linecap="round"/>
    <ellipse cx="165" cy="182" rx="50" ry="12" fill="#f2b62c"/>
    <rect x="173.5" y="142" width="5" height="44" rx="2.5" fill="#e04a4a"/><rect x="168" y="150" width="17" height="26" rx="4" fill="#e04a4a"/>
    <rect x="201.5" y="102" width="5" height="82" rx="2.5" fill="#35b45b"/><rect x="196" y="118" width="18" height="50" rx="4" fill="#35b45b"/>
  </g>

  <text x="600" y="420" text-anchor="middle" font-family="'Inter','Helvetica Neue',Arial,sans-serif" font-size="120" font-weight="600" letter-spacing="-4" fill="#f2efe8">crucible</text>
  <text x="600" y="476" text-anchor="middle" font-family="'Inter','Helvetica Neue',Arial,sans-serif" font-size="30" font-weight="500" letter-spacing="11" fill="#f2b62c">FROM TRADE LOG TO VERDICT</text>

  <!-- gauntlet stage row, centered (drawn green checks) -->
  <text x="156" y="524" font-family="'Inter','Helvetica Neue',Arial,sans-serif" font-size="17" font-weight="500" letter-spacing="1.5" fill="#c7ccd4">DECLARE</text>
  <polyline points="266,520 271,526 281,512" fill="none" stroke="#35b45b" stroke-width="3" stroke-linecap="round" stroke-linejoin="round"/>
  <line x1="296" y1="519" x2="314" y2="519" stroke="#565c66" stroke-width="2"/>
  <text x="328" y="524" font-family="'Inter','Helvetica Neue',Arial,sans-serif" font-size="17" font-weight="500" letter-spacing="1.5" fill="#c7ccd4">CLEAN</text>
  <polyline points="406,520 411,526 421,512" fill="none" stroke="#35b45b" stroke-width="3" stroke-linecap="round" stroke-linejoin="round"/>
  <line x1="436" y1="519" x2="454" y2="519" stroke="#565c66" stroke-width="2"/>
  <text x="468" y="524" font-family="'Inter','Helvetica Neue',Arial,sans-serif" font-size="17" font-weight="500" letter-spacing="1.5" fill="#c7ccd4">REAL</text>
  <polyline points="528,520 533,526 543,512" fill="none" stroke="#35b45b" stroke-width="3" stroke-linecap="round" stroke-linejoin="round"/>
  <line x1="558" y1="519" x2="576" y2="519" stroke="#565c66" stroke-width="2"/>
  <text x="590" y="524" font-family="'Inter','Helvetica Neue',Arial,sans-serif" font-size="17" font-weight="500" letter-spacing="1.5" fill="#c7ccd4">STRONG</text>
  <polyline points="686,520 691,526 701,512" fill="none" stroke="#35b45b" stroke-width="3" stroke-linecap="round" stroke-linejoin="round"/>
  <line x1="716" y1="519" x2="734" y2="519" stroke="#565c66" stroke-width="2"/>
  <text x="748" y="524" font-family="'Inter','Helvetica Neue',Arial,sans-serif" font-size="17" font-weight="500" letter-spacing="1.5" fill="#c7ccd4">DURABLE</text>
  <polyline points="858,520 863,526 873,512" fill="none" stroke="#35b45b" stroke-width="3" stroke-linecap="round" stroke-linejoin="round"/>
  <line x1="888" y1="519" x2="906" y2="519" stroke="#565c66" stroke-width="2"/>
  <text x="920" y="524" font-family="'Inter','Helvetica Neue',Arial,sans-serif" font-size="17" font-weight="500" letter-spacing="1.5" fill="#c7ccd4">GENERAL</text>
  <polyline points="1030,520 1035,526 1045,512" fill="none" stroke="#35b45b" stroke-width="3" stroke-linecap="round" stroke-linejoin="round"/>

  <text x="600" y="576" text-anchor="middle" font-family="'Inter','Helvetica Neue',Arial,sans-serif" font-size="25" font-weight="400" fill="#9aa0aa">The quantitative gauntlet for evaluating trading strategy expectancy.</text>
</svg>
