<svg xmlns="http://www.w3.org/2000/svg" viewBox="0 0 240 240" width="240" height="240" role="img" aria-label="crucible">
  <!-- bare white silhouette on transparent — for the teal header bar / tinted use -->
  <path d="M60,64 L20,44" fill="none" stroke="#ffffff" stroke-width="10" stroke-linecap="round"/>
  <circle cx="18" cy="43" r="7" fill="#ffffff"/>
  <path d="M96,56 L54,64 C44,76 50,92 70,94 L150,106" fill="none" stroke="#ffffff" stroke-width="10" stroke-linecap="round" stroke-linejoin="round"/>
  <ellipse cx="126" cy="85" rx="30" ry="9" fill="#ffffff" transform="rotate(42 126 85)"/>
  <ellipse cx="123" cy="81" rx="37" ry="12" fill="none" stroke="#ffffff" stroke-width="10" transform="rotate(42 123 81)"/>
  <path d="M144,100 L166,107 L149,116 Z" fill="#ffffff"/>
  <path d="M162,108 C162,132 158,152 155,170" fill="none" stroke="#ffffff" stroke-width="14" stroke-linecap="round"/>
  <ellipse cx="165" cy="182" rx="50" ry="12" fill="#ffffff"/>
  <rect x="173.5" y="142" width="5" height="44" rx="2.5" fill="#ffffff"/>
  <rect x="168" y="150" width="17" height="26" rx="4" fill="#ffffff"/>
  <rect x="201.5" y="102" width="5" height="82" rx="2.5" fill="#ffffff"/>
  <rect x="196" y="118" width="18" height="50" rx="4" fill="#ffffff"/>
</svg>
