<svg xmlns="http://www.w3.org/2000/svg" viewBox="0 0 1280 420" width="1280" height="420" role="img" aria-label="crucible — from trade log to verdict. The quantitative gauntlet for evaluating trading strategy expectancy.">
  <defs>
    <linearGradient id="bg" x1="0" y1="0" x2="0" y2="1"><stop offset="0" stop-color="#20232b"/><stop offset="1" stop-color="#141619"/></linearGradient>
    <radialGradient id="glow" cx="82%" cy="46%" r="30%"><stop offset="0" stop-color="#f2b62c" stop-opacity="0.14"/><stop offset="1" stop-color="#f2b62c" stop-opacity="0"/></radialGradient>
  </defs>
  <rect width="1280" height="420" fill="url(#bg)"/>
  <rect width="1280" height="420" fill="url(#glow)"/>

  <!-- background flourish: faint grid + a gold dashed equity curve + a green wave -->
  <g stroke="#ffffff" stroke-width="1" opacity="0.030">
    <path d="M160 0V420M400 0V420M640 0V420M880 0V420M1120 0V420"/>
    <path d="M0 105H1280M0 210H1280M0 315H1280"/>
  </g>
  <path d="M-20 372 C 300 300, 560 404, 900 300 S 1320 210 1320 210" fill="none" stroke="#f2b62c" stroke-width="2.5" stroke-dasharray="7 9" opacity="0.28"/>
  <path d="M-20 300 C 320 214, 620 360, 940 250 S 1320 168 1320 168" fill="none" stroke="#35b45b" stroke-width="2.5" opacity="0.16"/>

  <!-- cone-crucible mark, right -->
  <g transform="translate(1018,96) scale(0.9)">
    <path d="M60,64 L20,44" fill="none" stroke="#8b929c" stroke-width="10" stroke-linecap="round"/>
    <circle cx="18" cy="43" r="7" fill="#8b929c"/>
    <path d="M96,56 L54,64 C44,76 50,92 70,94 L150,106" fill="none" stroke="#b4bac4" stroke-width="10" stroke-linecap="round" stroke-linejoin="round"/>
    <ellipse cx="126" cy="85" rx="30" ry="9" fill="#f2b62c" transform="rotate(42 126 85)"/>
    <ellipse cx="123" cy="81" rx="37" ry="12" fill="none" stroke="#b4bac4" stroke-width="10" transform="rotate(42 123 81)"/>
    <path d="M144,100 L166,107 L149,116 Z" fill="#b4bac4"/>
    <path d="M162,108 C162,132 158,152 155,170" fill="none" stroke="#f2b62c" stroke-width="14" stroke-linecap="round"/>
    <ellipse cx="165" cy="182" rx="50" ry="12" fill="#f2b62c"/>
    <rect x="173.5" y="142" width="5" height="44" rx="2.5" fill="#e04a4a"/><rect x="168" y="150" width="17" height="26" rx="4" fill="#e04a4a"/>
    <rect x="201.5" y="102" width="5" height="82" rx="2.5" fill="#35b45b"/><rect x="196" y="118" width="18" height="50" rx="4" fill="#35b45b"/>
  </g>

  <!-- wordmark -->
  <text x="62" y="152" font-family="'Inter','Helvetica Neue',Arial,sans-serif" font-size="104" font-weight="600" letter-spacing="-3" fill="#f2efe8">crucible</text>

  <!-- gold tagline -->
  <text x="66" y="210" font-family="'Inter','Helvetica Neue',Arial,sans-serif" font-size="27" font-weight="500" letter-spacing="10" fill="#f2b62c">FROM TRADE LOG TO VERDICT</text>

  <!-- gauntlet stage row: names in steel, real drawn green checks, dashes muted -->
  <text x="66" y="276" font-family="'Inter','Helvetica Neue',Arial,sans-serif" font-size="17" font-weight="500" letter-spacing="1.5" fill="#c7ccd4">DECLARE</text>
  <polyline points="176,272 181,278 191,264" fill="none" stroke="#35b45b" stroke-width="3" stroke-linecap="round" stroke-linejoin="round"/>
  <line x1="206" y1="271" x2="224" y2="271" stroke="#565c66" stroke-width="2"/>
  <text x="238" y="276" font-family="'Inter','Helvetica Neue',Arial,sans-serif" font-size="17" font-weight="500" letter-spacing="1.5" fill="#c7ccd4">CLEAN</text>
  <polyline points="316,272 321,278 331,264" fill="none" stroke="#35b45b" stroke-width="3" stroke-linecap="round" stroke-linejoin="round"/>
  <line x1="346" y1="271" x2="364" y2="271" stroke="#565c66" stroke-width="2"/>
  <text x="378" y="276" font-family="'Inter','Helvetica Neue',Arial,sans-serif" font-size="17" font-weight="500" letter-spacing="1.5" fill="#c7ccd4">REAL</text>
  <polyline points="438,272 443,278 453,264" fill="none" stroke="#35b45b" stroke-width="3" stroke-linecap="round" stroke-linejoin="round"/>
  <line x1="468" y1="271" x2="486" y2="271" stroke="#565c66" stroke-width="2"/>
  <text x="500" y="276" font-family="'Inter','Helvetica Neue',Arial,sans-serif" font-size="17" font-weight="500" letter-spacing="1.5" fill="#c7ccd4">STRONG</text>
  <polyline points="596,272 601,278 611,264" fill="none" stroke="#35b45b" stroke-width="3" stroke-linecap="round" stroke-linejoin="round"/>
  <line x1="626" y1="271" x2="644" y2="271" stroke="#565c66" stroke-width="2"/>
  <text x="658" y="276" font-family="'Inter','Helvetica Neue',Arial,sans-serif" font-size="17" font-weight="500" letter-spacing="1.5" fill="#c7ccd4">DURABLE</text>
  <polyline points="768,272 773,278 783,264" fill="none" stroke="#35b45b" stroke-width="3" stroke-linecap="round" stroke-linejoin="round"/>
  <line x1="798" y1="271" x2="816" y2="271" stroke="#565c66" stroke-width="2"/>
  <text x="830" y="276" font-family="'Inter','Helvetica Neue',Arial,sans-serif" font-size="17" font-weight="500" letter-spacing="1.5" fill="#c7ccd4">GENERAL</text>
  <polyline points="940,272 945,278 955,264" fill="none" stroke="#35b45b" stroke-width="3" stroke-linecap="round" stroke-linejoin="round"/>

  <!-- subtitle -->
  <text x="66" y="332" font-family="'Inter','Helvetica Neue',Arial,sans-serif" font-size="25" font-weight="400" fill="#9aa0aa">The quantitative gauntlet for evaluating trading strategy expectancy.</text>
</svg>
